<svg xmlns="http://www.w3.org/2000/svg" width="800" height="500" viewBox="0 0 800 500">
  <rect width="100%" height="100%" fill="#f6f8ff"/>
  <g transform="translate(60,40)">
    <rect x="0" y="0" width="680" height="420" rx="12" fill="#ffffff" stroke="#e6eefc" />
    <g transform="translate(24,24)">
      <circle cx="80" cy="80" r="48" fill="#4f46e5" opacity="0.95" />
      <rect x="160" y="40" width="420" height="6" rx="3" fill="#e6eefc" />
      <rect x="160" y="64" width="260" height="6" rx="3" fill="#e6eefc" />
      <g transform="translate(0,160)">
        <rect x="0" y="0" width="640" height="180" rx="8" fill="#f7f9ff"/>
        <g transform="translate(14,14)">
          <rect x="0" y="20" width="80" height="120" rx="6" fill="#c7d2fe" />
          <rect x="110" y="8" width="70" height="132" rx="6" fill="#a5b4fc" />
          <rect x="230" y="36" width="50" height="104" rx="6" fill="#818cf8" />
          <rect x="310" y="0" width="120" height="140" rx="6" fill="#4f46e5" />
          <rect x="450" y="60" width="50" height="80" rx="6" fill="#c7d2fe" />
        </g>
      </g>
      <text x="0" y="120" font-family="Helvetica, Arial, sans-serif" font-size="18" fill="#0f172a">Limbum MT — low-resource NMT baseline</text>
    </g>
  </g>
</svg>