<svg xmlns="http://www.w3.org/2000/svg" width="800" height="500" viewBox="0 0 800 500">
  <rect width="100%" height="100%" fill="#fffaf6"/>
  <g transform="translate(60,40)">
    <rect x="0" y="0" width="680" height="420" rx="12" fill="#ffffff" stroke="#fff0e6" />
    <g transform="translate(24,24)">
      <circle cx="80" cy="80" r="48" fill="#dc2626" opacity="0.95" />
      <rect x="160" y="40" width="420" height="6" rx="3" fill="#fff3f2" />
      <rect x="160" y="64" width="260" height="6" rx="3" fill="#fff3f2" />
      <g transform="translate(0,160)">
        <rect x="0" y="0" width="640" height="180" rx="8" fill="#fff9f8"/>
        <g transform="translate(14,14)">
          <rect x="0" y="40" width="120" height="20" rx="4" fill="#fee2e2" />
          <rect x="140" y="20" width="120" height="44" rx="4" fill="#fecaca" />
          <rect x="280" y="4" width="120" height="60" rx="6" fill="#fca5a5" />
          <rect x="420" y="40" width="80" height="20" rx="4" fill="#fecaca" />
          <rect x="520" y="80" width="40" height="32" rx="4" fill="#fee2e2" />
        </g>
      </g>
      <text x="0" y="120" font-family="Helvetica, Arial, sans-serif" font-size="18" fill="#0b1221">Diabetes detection — ML & DL</text>
    </g>
  </g>
</svg>